<svg version="1.1" id="Layer_1" xmlns="http://www.w3.org/2000/svg" xmlns:xlink="http://www.w3.org/1999/xlink" x="0px" y="0px"
	 width="100%" viewBox="0 0 2000 1500" enable-background="new 0 0 2000 1500" xml:space="preserve">
<path fill="#0A1627" opacity="1.000000" stroke="none" 
	d="
M1356.000000,1501.000000 
	C904.000122,1501.000000 452.500275,1501.000000 1.000303,1501.000000 
	C1.000202,1001.000305 1.000202,501.000580 1.000101,1.000426 
	C1.333050,1.000000 1.666099,1.000000 1.999149,1.000000 
	C668.332275,1.000000 1334.665405,1.000000 2000.998901,1.000000 
	C2000.999268,500.999359 2000.999268,1000.998718 2000.999634,1500.999023 
	C1786.166626,1501.000000 1571.333374,1501.000000 1356.000000,1501.000000 
M956.848755,694.500061 
	C956.848755,616.920959 956.848755,539.341797 956.848755,461.534912 
	C904.566528,461.534912 852.994690,461.534912 800.805359,461.534912 
	C800.805359,463.749634 800.805359,465.700409 800.805359,467.651184 
	C800.805542,615.120972 800.787354,762.590759 800.855957,910.060547 
	C800.859680,918.040527 801.025024,926.095642 802.077759,933.987366 
	C807.523376,974.812683 827.337158,1006.129395 864.369263,1025.365845 
	C886.181763,1036.696533 909.954224,1039.927856 934.159119,1039.670532 
	C1008.947937,1038.875732 1083.801392,1040.341797 1158.446777,1033.965454 
	C1172.510986,1032.763794 1186.546509,1031.226685 1201.273804,1029.777588 
	C1198.755371,990.313171 1196.269531,951.359436 1193.757812,911.999146 
	C1191.308594,911.999146 1189.342773,911.999451 1187.377075,911.999146 
	C1123.556885,911.990112 1059.736694,912.003540 995.916443,911.958740 
	C975.514160,911.944458 956.257263,900.697388 956.619690,872.460938 
	C957.376709,813.482727 956.848816,754.488037 956.848755,694.500061 
M1016.238342,292.390259 
	C956.294006,280.153290 896.139160,279.272675 835.999939,290.276581 
	C757.302368,304.676208 686.949097,337.499207 624.825439,387.926849 
	C623.108276,389.320770 621.467163,390.808411 618.876648,393.039490 
	C632.414795,393.039490 644.556946,393.184082 656.690430,392.924316 
	C659.291931,392.868622 662.256287,391.913147 664.390015,390.422546 
	C758.591187,324.615509 862.901489,298.687347 976.770935,312.331604 
	C1047.962402,320.862030 1113.047974,346.377472 1171.947266,387.315216 
	C1177.839355,391.410614 1183.501587,393.591827 1190.742676,393.182373 
	C1200.782715,392.614624 1210.879028,393.039703 1222.084473,393.039703 
	C1220.353882,391.451904 1219.602051,390.630463 1218.724976,389.977173 
	C1205.373901,380.032440 1192.401489,369.517944 1178.571899,360.288361 
	C1129.149170,327.304810 1075.243896,304.784882 1016.238342,292.390259 
M766.128906,1192.243530 
	C943.333557,1253.679810 1119.091309,1198.947754 1221.318604,1107.980957 
	C1207.761719,1107.980957 1194.649414,1107.926514 1181.539185,1108.064209 
	C1180.214355,1108.078125 1178.778198,1109.077515 1177.601074,1109.912109 
	C1115.657349,1153.830444 1047.103638,1180.572876 971.599731,1189.297363 
	C924.893433,1194.693970 878.475525,1192.829834 832.408691,1183.457886 
	C771.033569,1170.971680 714.860596,1146.445801 663.853638,1110.087036 
	C662.666016,1109.240601 661.275940,1108.102173 659.969299,1108.087646 
	C646.713318,1107.939697 633.454956,1107.997192 618.766113,1107.997192 
	C663.357239,1145.415283 711.858154,1173.078369 766.128906,1192.243530 
z"/>
<path fill="#FE0039" opacity="1.000000" stroke="none" 
	d="
M956.848755,695.000122 
	C956.848816,754.488037 957.376709,813.482727 956.619690,872.460938 
	C956.257263,900.697388 975.514160,911.944458 995.916443,911.958740 
	C1059.736694,912.003540 1123.556885,911.990112 1187.377075,911.999146 
	C1189.342773,911.999451 1191.308594,911.999146 1193.757812,911.999146 
	C1196.269531,951.359436 1198.755371,990.313171 1201.273804,1029.777588 
	C1186.546509,1031.226685 1172.510986,1032.763794 1158.446777,1033.965454 
	C1083.801392,1040.341797 1008.947937,1038.875732 934.159119,1039.670532 
	C909.954224,1039.927856 886.181763,1036.696533 864.369263,1025.365845 
	C827.337158,1006.129395 807.523376,974.812683 802.077759,933.987366 
	C801.025024,926.095642 800.859680,918.040527 800.855957,910.060547 
	C800.787354,762.590759 800.805542,615.120972 800.805359,467.651184 
	C800.805359,465.700409 800.805359,463.749634 800.805359,461.534912 
	C852.994690,461.534912 904.566528,461.534912 956.848755,461.534912 
	C956.848755,539.341797 956.848755,616.920959 956.848755,695.000122 
z"/>
<path fill="#FC0039" opacity="1.000000" stroke="none" 
	d="
M1016.641235,292.514221 
	C1075.243896,304.784882 1129.149170,327.304810 1178.571899,360.288361 
	C1192.401489,369.517944 1205.373901,380.032440 1218.724976,389.977173 
	C1219.602051,390.630463 1220.353882,391.451904 1222.084473,393.039703 
	C1210.879028,393.039703 1200.782715,392.614624 1190.742676,393.182373 
	C1183.501587,393.591827 1177.839355,391.410614 1171.947266,387.315216 
	C1113.047974,346.377472 1047.962402,320.862030 976.770935,312.331604 
	C862.901489,298.687347 758.591187,324.615509 664.390015,390.422546 
	C662.256287,391.913147 659.291931,392.868622 656.690430,392.924316 
	C644.556946,393.184082 632.414795,393.039490 618.876648,393.039490 
	C621.467163,390.808411 623.108276,389.320770 624.825439,387.926849 
	C686.949097,337.499207 757.302368,304.676208 835.999939,290.276581 
	C896.139160,279.272675 956.294006,280.153290 1016.641235,292.514221 
z"/>
<path fill="#FC0039" opacity="1.000000" stroke="none" 
	d="
M765.753662,1192.132080 
	C711.858154,1173.078369 663.357239,1145.415283 618.766113,1107.997192 
	C633.454956,1107.997192 646.713318,1107.939697 659.969299,1108.087646 
	C661.275940,1108.102173 662.666016,1109.240601 663.853638,1110.087036 
	C714.860596,1146.445801 771.033569,1170.971680 832.408691,1183.457886 
	C878.475525,1192.829834 924.893433,1194.693970 971.599731,1189.297363 
	C1047.103638,1180.572876 1115.657349,1153.830444 1177.601074,1109.912109 
	C1178.778198,1109.077515 1180.214355,1108.078125 1181.539185,1108.064209 
	C1194.649414,1107.926514 1207.761719,1107.980957 1221.318604,1107.980957 
	C1119.091309,1198.947754 943.333557,1253.679810 765.753662,1192.132080 
z"/>
</svg>